<!DOCTYPE svg PUBLIC "-//W3C//DTD SVG 1.1//EN" "http://www.w3.org/Graphics/SVG/1.1/DTD/svg11.dtd">
<!-- Uploaded to: SVG Repo, www.svgrepo.com, Transformed by: SVG Repo Mixer Tools -->
<svg fill="#3874ff" width="800px" height="800px" viewBox="-2.88 -2.88 21.76 21.76" xmlns="http://www.w3.org/2000/svg" stroke="#3874ff">
<g id="SVGRepo_bgCarrier" stroke-width="0">
<rect x="-2.88" y="-2.88" width="21.76" height="21.76" rx="10.88" fill="#fff" strokewidth="0"/>
</g>
<g id="SVGRepo_tracerCarrier" stroke-linecap="round" stroke-linejoin="round"/>
<g id="SVGRepo_iconCarrier">
<path d="M14.75 2.5H1.25A1.25 1.25 0 0 0 0 3.75v8.5a1.25 1.25 0 0 0 1.25 1.25h13.5A1.25 1.25 0 0 0 16 12.25v-8.5a1.25 1.25 0 0 0-1.25-1.25zM1.25 3.75h2a1.86 1.86 0 0 1-2 1.75zm0 8.5V10.5a1.86 1.86 0 0 1 2 1.75zm13.5 0H12.8a1.86 1.86 0 0 1 1.95-1.75zm0-3a3.1 3.1 0 0 0-3.2 3h-7.1a3.1 3.1 0 0 0-3.2-3v-2.5a3.1 3.1 0 0 0 3.2-3h7.1a3.1 3.1 0 0 0 3.2 3zm0-3.75a1.86 1.86 0 0 1-1.95-1.75h1.95z"/>
<path d="M8 5a3.1 3.1 0 0 0-3.2 3A3.1 3.1 0 0 0 8 11a3.1 3.1 0 0 0 3.2-3A3.1 3.1 0 0 0 8 5zm0 4.75A1.86 1.86 0 0 1 6.05 8 1.86 1.86 0 0 1 8 6.25 1.86 1.86 0 0 1 10 8a1.86 1.86 0 0 1-2 1.75z"/>
</g>
</svg>